<svg width="648" height="418" viewBox="0 0 648 418" fill="none" xmlns="http://www.w3.org/2000/svg">
<path d="M0 402.409C0 410.693 6.71573 417.409 15 417.409H271C279.284 417.409 286 410.693 286 402.409V112.409C286 104.125 279.284 97.4089 271 97.4089H15C6.71573 97.4089 0 104.125 0 112.409V402.409Z" fill="white"/>
<path d="M0 396.409L202.63 311.825C211.939 307.939 218 298.841 218 288.754V97.4089H0V396.409Z" fill="white"/>
<path d="M0 97.4089H218V25.0227C218 7.55689 200.546 -4.52578 184.198 1.62332L16.1984 64.816C6.45308 68.4816 0 77.8035 0 88.2154V97.4089Z" fill="white"/>
<path d="M362 402.409C362 410.693 368.716 417.409 377 417.409H633C641.284 417.409 648 410.693 648 402.409V112.409C648 104.125 641.284 97.4089 633 97.4089H377C368.716 97.4089 362 104.125 362 112.409V402.409Z" fill="white"/>
<path d="M362 396.409L564.63 311.825C573.939 307.939 580 298.841 580 288.754V97.4089H362V396.409Z" fill="white"/>
<path d="M362 97.4089H580V25.0227C580 7.55689 562.546 -4.52578 546.198 1.62332L378.198 64.816C368.453 68.4816 362 77.8035 362 88.2154V97.4089Z" fill="white"/>
</svg>
